<svg width="120" height="23" fill="none" xmlns="http://www.w3.org/2000/svg">
  <path d="M11.2018 9.33953h4.966c1.0158.03762 1.6366.30097 1.8623.79007.1881.3574.2822.8841.2822 1.5801v6.2075c0 .602-.2634 1.1757-.7901 1.7212-1.5801 1.6365-3.9503 2.4548-7.1105 2.4548-2.80276 0-5.23875-1.0534-7.30793-3.1602C1.03459 16.8074 0 14.2491 0 11.2582c0-2.99088 1.0534-5.4833 3.1602-7.47724C5.26701 1.76821 7.75002.761835 10.6093.761835c2.2196 0 4.317.733615 6.2921 2.200855.5079.37622.7619.79946.7619 1.26973 0 .45145-.2163.97815-.649 1.5801-.7336.99697-1.4014 1.49545-2.0033 1.49545-.3574 0-.9312-.25394-1.7212-.76183-.7901-.5267-1.7306-.79005-2.8216-.79005-1.42964 0-2.69937.50789-3.8092 1.52366-1.10983.99697-1.66475 2.31373-1.66475 3.95025 0 1.6177.56432 3.0003 1.69297 4.1478 1.12864 1.1286 2.40777 1.6929 3.83738 1.6929 1.0346 0 1.9657-.1693 2.7934-.5078v-3.0756h-2.2291c-.5831 0-.9969-.0752-1.24148-.2257-.24454-.1505-.40443-.3668-.47967-.649-.07525-.301-.11287-.696-.11287-1.1851 0-.5079.03762-.9123.11287-1.2133.09405-.30094.25394-.50786.47967-.62072.33858-.1693.79008-.25395 1.35438-.25395ZM34.8996 12.6126c0 1.1475-.2916 2.0033-.8747 2.5677-.5644.5455-1.1945.8182-1.8905.8182h-6.6872c0 .5267.3104.9688.9311 1.3262.6208.3574 1.2415.5361 1.8623.5361 1.091 0 1.9469-.1129 2.5676-.3386l.3104-.1129c.4515-.2069.8277-.3103 1.1287-.3103.6019 0 1.1192.4232 1.5518 1.2697.2446.5079.3669.9405.3669 1.2979 0 1.6742-2.0034 2.5113-6.0101 2.5113-1.392 0-2.6335-.2352-3.7245-.7054-1.0722-.4891-1.9093-1.1287-2.5112-1.9187-1.1851-1.5237-1.7777-3.2261-1.7777-5.1072 0-2.3701.7619-4.2606 2.2856-5.67139 1.5424-1.42962 3.4611-2.14443 5.756-2.14443 2.6147 0 4.5334.92173 5.7561 2.76518.6396.97814.9594 2.05034.9594 3.21664Zm-5.9536.8183c.7148 0 1.0722-.301 1.0722-.9029 0-.4327-.1693-.7807-.5079-1.044-.3198-.2634-.7901-.3951-1.4108-.3951-.602 0-1.2039.254-1.8058.7619-.602.489-.903 1.0157-.903 1.5801h3.5553ZM45.099 11.9354l-1.834-.1129v3.8939c0 .5079.0752.8747.2257 1.1004.1693.2257.4703.3386.9029.3386.4515 0 .7901.0188 1.0158.0564.2445.0188.4985.1035.7618.254.4327.2445.649.8747.649 1.8904 0 1.1851-.2633 1.9093-.79 2.1727-.2822.1317-.5361.2163-.7619.2539-.2069.0188-.5173.0282-.9311.0282-1.9563 0-3.4424-.442-4.4581-1.3261-1.0158-.8841-1.5237-2.3796-1.5237-4.4864v-4.176c-.3574.0565-.743.0847-1.1569.0847-.4138 0-.7618-.1599-1.044-.4797-.2633-.3198-.395-.8653-.395-1.63651 0-.77124.047-1.32616.1411-1.66475.094-.3574.2257-.61135.395-.76184.301-.24454.6772-.36681 1.1287-.36681l.9311.11287V4.2042c0-.43265.0094-.75243.0282-.95935.0376-.20692.1317-.43264.2822-.67718.2445-.47027.9687-.70541 2.1726-.70541 1.2791 0 2.041.348 2.2855 1.044.0941.30097.1411.78065.1411 1.43902v2.76518c.8277-.07524 1.4484-.11287 1.8622-.11287.4327 0 .7525.01882.9594.05644.2257.01881.4797.10346.7618.25394.4891.24454.7336.96876.7336 2.17264 0 1.18509-.2539 1.90929-.7618 2.17269-.2822.1316-.5361.2163-.7618.2539-.2069.0188-.5267.0282-.9594.0282ZM73.1141 1.24151c1.2603.45146 1.8905 1.0534 1.8905 1.80583 0 .24454-.1129.7054-.3386 1.38259L69.2485 20.0899c-.0376.1316-.1035.2915-.1975.4796-.0941.1881-.348.4421-.7619.7619-.395.3009-.8747.4514-1.439.4514-.5455 0-1.0252-.1505-1.439-.4514-.395-.3198-.6584-.6302-.7901-.9312l-3.3012-9.7345c-2.088 6.1699-3.1508 9.3113-3.1885 9.4242-.0376.1128-.1222.2727-.2539.4796-.1317.207-.2822.3951-.4515.5644-.4326.4326-.9499.6489-1.5518.6489-.602 0-1.1005-.141-1.4955-.4232-.3762-.2822-.6302-.5643-.7618-.8465l-.1975-.4232-5.4458-15.65997c-.2069-.62076-.3103-1.08162-.3103-1.38259 0-.75243.6301-1.34497 1.8904-1.77761.5456-.18811 1.0346-.282165 1.4673-.282165.4514 0 .79.150485 1.0158.451455.2445.30097.4608.76184.6489 1.38259l3.1038 9.42419 3.0756-9.28311c.2633-.79005.743-1.33556 1.439-1.63653.301-.13168.6866-.19751 1.1568-.19751.4891 0 .9406.15989 1.3544.47967.4138.30097.6772.60194.7901.90291l3.2448 9.79097 3.1038-9.48059c.1505-.43265.2727-.75243.3668-.95935.0941-.20691.2633-.40443.5079-.59253.2633-.20692.5831-.310381.9593-.310381.3762 0 .8183.094051 1.3262.282161ZM84.2231 8.52126c.1128-1.0534.8559-1.5801 2.229-1.5801.7337 0 1.2792.05643 1.6366.1693.3574.11286.6019.31038.7336.59254.1505.28216.2351.5361.2539.76183.0377.20692.0565.5267.0565.95935v9.87562c0 .4327-.0188.7619-.0565.9876-.0188.2069-.094.4514-.2257.7336-.2633.4891-.9123.7336-1.9469.7336-1.0158 0-1.7024-.1223-2.0598-.3668-.3386-.2633-.5361-.6396-.5925-1.1286-.696.9969-1.8623 1.4954-3.4988 1.4954-1.6177 0-3.1226-.743-4.5146-2.2291-1.392-1.486-2.088-3.2072-2.088-5.1635 0-1.9751.696-3.6963 2.088-5.16355 1.4108-1.48605 2.9533-2.22907 4.6275-2.22907.6395 0 1.2227.11286 1.7494.33859.5267.22573.8935.44205 1.1004.64897.2069.18811.3762.37622.5079.56432Zm-5.1354 5.86894c0 .6208.2446 1.1851.7337 1.693.489.4891 1.0816.7336 1.7776.7336.696 0 1.2697-.2539 1.7212-.7618.4702-.5079.7054-1.0628.7054-1.6648 0-.6207-.2258-1.1945-.6772-1.7212-.4327-.5267-1.0252-.79-1.7776-.79-.7337 0-1.3356.2633-1.8059.79-.4514.5267-.6772 1.1005-.6772 1.7212ZM91.4945 20.4849c-.3574-.2257-.5362-.5831-.5362-1.0722 0-.4891.3575-1.2321 1.0723-2.2291.2069-.3198.5361-.4797.9875-.4797.4703 0 1.1005.2352 1.8905.7054.7901.4515 1.5049.6772 2.1444.6772 1.1475 0 1.7212-.2257 1.7212-.6772 0-.3574-.6301-.6207-1.8905-.79-1.185-.1693-2.3607-.6114-3.527-1.3262-.5455-.3386-.997-.8653-1.3544-1.5801-.3574-.7336-.5361-1.5989-.5361-2.5959 0-2.97205 2.041-4.4581 6.1229-4.4581 1.3356 0 2.7089.31978 4.1199.95935.658.30097.987.67719.987 1.12864 0 .45146-.207 1.00638-.621 1.66471-.413.6584-.837.9876-1.269.9876-.226 0-.649-.1411-1.27-.4232-.6019-.2822-1.2603-.4233-1.9751-.4233-1.1098 0-1.6647.2069-1.6647.6208 0 .5643.6395.9311 1.9187 1.1004 1.2415.1317 2.4451.4891 3.6121 1.0722.545.2634.996.7242 1.354 1.3826.376.6396.564 1.4484.564 2.4266 0 .9782-.188 1.8152-.564 2.5112-.358.6772-.865 1.1851-1.524 1.5237-1.204.5831-2.7179.8747-4.5426.8747-1.8058 0-3.5458-.5267-5.2199-1.5801ZM113.426 6.99759c1.881 0 3.442.71481 4.684 2.14443C119.37 10.5716 120 12.321 120 14.3902v4.966c0 .4327-.019.7619-.056.9876-.019.2069-.104.4515-.254.7336-.245.4891-.969.7336-2.173.7336-1.147 0-1.862-.2445-2.144-.7336-.151-.2821-.245-.5361-.283-.7618-.018-.2257-.028-.5643-.028-1.0158V14.362c0-.7712-.216-1.3732-.649-1.8058-.432-.4327-.987-.649-1.665-.649-.658 0-1.241.2069-1.749.6208-.508.395-.799.8464-.875 1.3543v5.4739c0 .4327-.018.7619-.056.9876-.019.2069-.104.4515-.254.7336-.245.4891-.969.7336-2.173.7336-1.185 0-1.909-.2539-2.172-.7618-.132-.2821-.217-.5267-.254-.7336-.019-.2069-.028-.5361-.028-.9876V2.4548c0-.43265.009-.75243.028-.95935.037-.22572.122-.47026.254-.733615C105.732.253945 106.466 0 107.67 0c1.185 0 1.899.253945 2.144.761835.15.282165.235.536105.254.761835.038.20692.056.5267.056.95935v6.23576c.941-1.14746 2.041-1.72119 3.302-1.72119Z" fill="#446DF6"/>
</svg>
