<svg aria-hidden="true" style="position: absolute; width: 0; height: 0; overflow: hidden;" version="1.1" xmlns="http://www.w3.org/2000/svg" xmlns:xlink="http://www.w3.org/1999/xlink">
<defs>
<symbol id="icon-map-pin" viewBox="0 0 32 32">
<path d="M16 2.667c-5.16 0-9.333 4.173-9.333 9.333 0 7 9.333 17.333 9.333 17.333s9.333-10.333 9.333-17.333c0-5.16-4.173-9.333-9.333-9.333zM16 15.333c-1.84 0-3.333-1.493-3.333-3.333s1.493-3.333 3.333-3.333 3.333 1.493 3.333 3.333-1.493 3.333-3.333 3.333z"></path>
</symbol>
<symbol id="icon-clock" viewBox="0 0 32 32">
<path fill="#2797ff" style="fill: var(--color1, #2797ff)" d="M16 0c-8.823 0-16 7.177-16 16s7.177 16 16 16c8.823 0 16-7.177 16-16s-7.177-16-16-16zM23.609 24.276c-0.26 0.26-0.601 0.391-0.943 0.391s-0.683-0.131-0.943-0.391l-6.667-6.667c-0.251-0.249-0.391-0.588-0.391-0.943v-8.667c0-0.737 0.597-1.333 1.333-1.333s1.333 0.596 1.333 1.333v8.115l6.276 6.276c0.521 0.522 0.521 1.364 0 1.885z"></path>
</symbol>
<symbol id="icon-email" viewBox="0 0 32 32">
<path d="M21.211 16.163l10.788 6.82v-13.928l-10.788 7.108zM0 9.055v13.928l10.788-6.82-10.788-7.108zM29.998 5h-28c-0.998 0-1.79 0.744-1.94 1.702l15.94 10.502 15.94-10.502c-0.15-0.958-0.942-1.702-1.94-1.702zM19.381 17.372l-2.83 1.864c-0.168 0.11-0.358 0.164-0.55 0.164s-0.382-0.054-0.55-0.164l-2.83-1.866-12.556 7.942c0.154 0.95 0.942 1.688 1.936 1.688h28c0.994 0 1.782-0.738 1.936-1.688l-12.556-7.94z"></path>
</symbol>
<symbol id="icon-employee" viewBox="0 0 32 32">
<path fill="#fff" style="fill: var(--color2, #fff)" d="M26.316 25.928c-0.259 0-0.469 0.21-0.469 0.469v4.407c0 0.143-0.116 0.259-0.259 0.259h-2.52v-9.231c0-0.259-0.21-0.469-0.469-0.469s-0.469 0.21-0.469 0.469v9.231h-5.074l1.471-1.619c0.161-0.177 0.237-0.429 0.203-0.674-0.001-0.005-0.001-0.009-0.002-0.014l-1.401-8.279 0.378-0.568c0.209 0.148 0.37 0.291 0.671 0.291 0.307 0 0.594-0.172 0.735-0.454v-0l1.478-2.962 3.367 1.304c0.122 0.052 1.891 0.849 1.891 2.952v3.171c-0 0.259 0.21 0.469 0.469 0.469s0.469-0.21 0.469-0.469v-3.171c0-2.771-2.373-3.779-2.474-3.821-0.003-0.001-0.006-0.002-0.009-0.004l-5.604-2.17v-1.314c0.89-0.692 1.507-1.718 1.662-2.889 0.444-0.031 0.856-0.197 1.192-0.486 0.439-0.378 0.691-0.927 0.691-1.508 0-0.482-0.174-0.942-0.484-1.3v-1.736c-0-3.203-2.606-5.81-5.81-5.81s-5.809 2.606-5.809 5.81v1.782c-0.313 0.355-0.483 0.792-0.483 1.255 0 0.581 0.252 1.13 0.691 1.508 0.336 0.289 0.748 0.455 1.191 0.486 0.156 1.193 0.791 2.257 1.757 2.959v1.245l-5.598 2.17c-0.003 0.001-0.006 0.002-0.009 0.003-0.101 0.042-2.474 1.049-2.474 3.82v9.765c0 0.66 0.537 1.196 1.196 1.196h4.466c0.259 0 0.469-0.21 0.469-0.469s-0.21-0.469-0.469-0.469h-1.009v-9.231c0-0.259-0.21-0.469-0.469-0.469s-0.469 0.21-0.469 0.469v9.231h-2.52c-0.143 0-0.259-0.116-0.259-0.259v-9.765c0-2.111 1.781-2.905 1.89-2.952l3.365-1.304 1.478 2.963c0.141 0.283 0.429 0.454 0.735 0.454 0.3 0 0.459-0.141 0.671-0.291l0.378 0.568-1.401 8.279c-0.001 0.005-0.001 0.009-0.002 0.014-0.034 0.245 0.042 0.497 0.203 0.674l1.471 1.619h-1.875c-0.259 0-0.469 0.21-0.469 0.469s0.21 0.469 0.469 0.469h12.523c0.66 0 1.196-0.537 1.196-1.196v-4.407c-0-0.259-0.21-0.469-0.469-0.469zM19.711 16.442l-1.378 2.762c-0.034-0.024-0.765-0.543-1.657-1.177 0.387-0.478-0.066 0.081 1.702-2.101l1.333 0.516zM16.94 19.365l-0.357 0.538h-1.169l-0.357-0.538 0.942-0.669 0.942 0.669zM14.234 15.195v-0.877c0.569 0.23 1.178 0.336 1.772 0.336 0.615 0 1.217-0.131 1.753-0.365v0.91l-1.761 2.174-1.764-2.178zM21.305 8.846c-0 0.307-0.133 0.598-0.365 0.797-0.153 0.132-0.338 0.216-0.541 0.249v-2.092c0.539 0.087 0.906 0.534 0.906 1.046zM11.501 9.892c-0.545-0.088-0.906-0.539-0.906-1.046 0-0.501 0.415-0.909 0.906-1.022v2.069zM11.526 6.869c-0.149 0.017-0.32 0.058-0.448 0.101v-1.16c0-2.686 2.186-4.872 4.872-4.872s4.872 2.186 4.872 4.872v1.128c-0.136-0.041-0.278-0.069-0.423-0.082 0-0.452 0.004-0.365-1.476-1.956-0.272-0.292-0.722-0.354-1.065-0.13-1.633 1.067-3.625 1.603-5.463 1.471-0.403-0.030-0.77 0.235-0.869 0.628zM12.438 10.261v-3.079c2.023 0.119 4.145-0.483 5.859-1.58 0.679 0.729 1.046 1.111 1.165 1.256v3.402c0 1.903-1.552 3.455-3.455 3.455-2.137 0-3.568-1.658-3.568-3.455zM13.664 19.204l-1.378-2.762 1.331-0.515 1.703 2.102c-0.866 0.615-1.577 1.12-1.655 1.176zM14.202 28.856l1.357-8.016h0.879l1.357 8.016-1.796 1.976-1.797-1.976z"></path>
</symbol>
<symbol id="icon-facebook" viewBox="0 0 32 32">
<path fill="#3b74d0" style="fill: var(--color1, #3b74d0)" d="M16 32c8.837 0 16-7.163 16-16s-7.163-16-16-16c-8.837 0-16 7.163-16 16s7.163 16 16 16z"></path>
<path fill="#fff" style="fill: var(--color2, #fff)" d="M20.022 16.627h-2.855v10.459h-4.326v-10.459h-2.057v-3.676h2.057v-2.379c0-1.701 0.808-4.365 4.364-4.365l3.204 0.013v3.568h-2.325c-0.381 0-0.918 0.191-0.918 1.002v2.163h3.233l-0.378 3.673z"></path>
</symbol>

<symbol id="icon-increase" viewBox="0 0 32 32">
<path fill="#fff" style="fill: var(--color2, #fff)" d="M30.022 13.884c0-0.672-0.547-1.219-1.219-1.219h-7.678c-0.672 0-1.219 0.547-1.219 1.219v1.566c0 0.283 0.098 0.543 0.26 0.75-0.162 0.207-0.26 0.467-0.26 0.75v1.566c0 0.113 0.017 0.223 0.046 0.327-0.104-0.029-0.214-0.046-0.327-0.046h-2.745c-0.259 0-0.469 0.21-0.469 0.469s0.21 0.469 0.469 0.469h2.745c0.152 0 0.281 0.129 0.281 0.281v1.566c0 0.152-0.129 0.281-0.281 0.281h-7.678c-0.152 0-0.281-0.129-0.281-0.281v-1.566c0-0.152 0.129-0.281 0.281-0.281h2.745c0.259 0 0.469-0.21 0.469-0.469s-0.21-0.469-0.469-0.469h-2.745c-0.672 0-1.219 0.547-1.219 1.219v1.566c0 0.283 0.098 0.543 0.26 0.75-0.162 0.207-0.26 0.467-0.26 0.75v1.566c0 0.113 0.017 0.223 0.046 0.327-0.104-0.029-0.214-0.046-0.327-0.046h-7.678c-0.672 0-1.219 0.547-1.219 1.219v1.566c0 0.283 0.098 0.543 0.26 0.75-0.162 0.207-0.26 0.467-0.26 0.75v1.566c0 0.672 0.547 1.219 1.219 1.219h7.678c0.283 0 0.543-0.098 0.75-0.26 0.207 0.162 0.467 0.26 0.75 0.26h7.678c0.283 0 0.543-0.098 0.75-0.26 0.207 0.162 0.467 0.26 0.75 0.26h7.678c0.672 0 1.219-0.547 1.219-1.219v-1.566c0-0.283-0.098-0.543-0.26-0.75 0.162-0.207 0.26-0.467 0.26-0.75v-1.566c0-0.283-0.098-0.543-0.26-0.75 0.162-0.207 0.26-0.467 0.26-0.75v-1.566c0-0.283-0.098-0.543-0.26-0.75 0.162-0.207 0.26-0.467 0.26-0.75v-1.566c0-0.283-0.098-0.543-0.26-0.75 0.162-0.207 0.26-0.467 0.26-0.75v-1.566c0-0.283-0.098-0.543-0.26-0.75 0.162-0.207 0.26-0.467 0.26-0.75v-1.566h0zM10.729 30.781c0 0.152-0.129 0.281-0.281 0.281h-7.678c-0.152 0-0.281-0.129-0.281-0.281v-1.566c0-0.152 0.129-0.281 0.281-0.281h7.678c0.152 0 0.281 0.129 0.281 0.281v1.566h0zM10.729 27.715c0 0.152-0.129 0.281-0.281 0.281h-7.678c-0.152 0-0.281-0.129-0.281-0.281v-1.566c0-0.152 0.129-0.281 0.281-0.281h7.678c0.152 0 0.281 0.129 0.281 0.281v1.566h0zM19.907 30.781c0 0.152-0.129 0.281-0.281 0.281h-7.678c-0.152 0-0.281-0.129-0.281-0.281v-1.566c0-0.152 0.129-0.281 0.281-0.281h7.678c0.152 0 0.281 0.129 0.281 0.281v1.566h0zM19.907 27.715c0 0.152-0.129 0.281-0.281 0.281h-7.678c-0.152 0-0.281-0.129-0.281-0.281v-1.566c0-0.152 0.129-0.281 0.281-0.281h7.678c0.152 0 0.281 0.129 0.281 0.281v1.566h0zM19.907 24.649c0 0.152-0.129 0.281-0.281 0.281h-7.678c-0.152 0-0.281-0.129-0.281-0.281v-1.566c0-0.152 0.129-0.281 0.281-0.281h7.678c0.152 0 0.281 0.129 0.281 0.281v1.566h0zM20.844 16.951c0-0.152 0.129-0.281 0.281-0.281h7.678c0.152 0 0.281 0.129 0.281 0.281v1.566c0 0.152-0.129 0.281-0.281 0.281h-7.678c-0.152 0-0.281-0.129-0.281-0.281v-1.566zM20.844 20.017c0-0.152 0.129-0.281 0.281-0.281h7.678c0.152 0 0.281 0.129 0.281 0.281v1.566c0 0.152-0.129 0.281-0.281 0.281h-7.678c-0.152 0-0.281-0.129-0.281-0.281v-1.566zM20.844 23.083c0-0.152 0.129-0.281 0.281-0.281h7.678c0.152 0 0.281 0.129 0.281 0.281v1.566c0 0.152-0.129 0.281-0.281 0.281h-7.678c-0.152 0-0.281-0.129-0.281-0.281v-1.566zM20.844 26.149c0-0.152 0.129-0.281 0.281-0.281h7.678c0.152 0 0.281 0.129 0.281 0.281v1.566c0 0.152-0.129 0.281-0.281 0.281h-7.678c-0.152 0-0.281-0.129-0.281-0.281v-1.566zM29.085 30.781c-0 0.152-0.129 0.281-0.281 0.281h-7.678c-0.152 0-0.281-0.129-0.281-0.281v-1.566c0-0.152 0.129-0.281 0.281-0.281h7.678c0.152 0 0.281 0.129 0.281 0.281v1.566h0zM29.085 15.451c0 0.152-0.129 0.281-0.281 0.281h-7.678c-0.152 0-0.281-0.129-0.281-0.281v-1.566c0-0.152 0.129-0.281 0.281-0.281h7.678c0.152 0 0.281 0.129 0.281 0.281v1.566h0zM17.838 7.55h-2c-0.259 0-0.469 0.21-0.469 0.469s0.21 0.469 0.469 0.469h0.86l-14.285 14.285c-0.183 0.183-0.183 0.48 0 0.663 0.092 0.092 0.212 0.137 0.332 0.137s0.24-0.046 0.331-0.137l14.294-14.294v0.877c0 0.259 0.21 0.469 0.469 0.469s0.469-0.21 0.469-0.469v-2c0-0.259-0.21-0.469-0.469-0.469zM29.977 6.487c-0.249-0.071-0.508 0.074-0.579 0.323-0.56 1.971-2.383 3.348-4.434 3.348-2.542 0-4.61-2.068-4.61-4.61s2.068-4.61 4.61-4.61c2.283 0 4.198 1.634 4.553 3.886 0.040 0.256 0.281 0.431 0.536 0.39s0.43-0.28 0.39-0.536c-0.204-1.291-0.864-2.475-1.858-3.333-1.006-0.867-2.291-1.345-3.621-1.345-3.059 0-5.548 2.489-5.548 5.548s2.489 5.548 5.548 5.548c2.468 0 4.662-1.657 5.336-4.029 0.071-0.249-0.074-0.508-0.323-0.579z"></path>
<path fill="#fff" style="fill: var(--color2, #fff)" d="M24.933 1.921c-2 0-3.627 1.627-3.627 3.627s1.627 3.626 3.627 3.626c2 0 3.626-1.627 3.626-3.626s-1.627-3.627-3.626-3.627zM24.933 8.237c-1.483 0-2.689-1.206-2.689-2.689s1.206-2.689 2.689-2.689c1.483 0 2.689 1.206 2.689 2.689s-1.206 2.689-2.689 2.689z"></path>
<path fill="#fff" style="fill: var(--color2, #fff)" d="M25.163 5.206v-0.929c0.197 0.016 0.299 0.063 0.512 0.169 0.107 0.054 0.24 0.033 0.325-0.111 0.069-0.117 0.115-0.304-0.026-0.421-0.201-0.167-0.555-0.22-0.811-0.22v-0.139c0-0.079-0.098-0.133-0.18-0.133-0.091 0-0.18 0.055-0.18 0.132v0.148c-0.611 0.080-1.025 0.409-1.025 1.030 0 0.636 0.46 0.846 1.025 1.062v1.051c-0.28-0.034-0.413-0.143-0.676-0.341-0.131-0.098-0.26-0.061-0.357 0.074-0.124 0.174-0.106 0.326-0.003 0.466 0.199 0.269 0.633 0.426 1.035 0.426v0.149c0 0.080 0.093 0.133 0.18 0.133 0.082 0 0.18-0.054 0.18-0.132v-0.164c0.533-0.082 0.998-0.42 0.998-1.12-0-0.641-0.403-0.914-0.998-1.13zM24.846 5.090c-0.317-0.127-0.422-0.229-0.422-0.428 0-0.23 0.195-0.334 0.422-0.37v0.797zM25.12 6.838v-0.919c0.329 0.144 0.396 0.301 0.396 0.486 0 0.244-0.158 0.383-0.396 0.433z"></path>
</symbol>
<symbol id="icon-innovation" viewBox="0 0 32 32">
<path fill="#fff" style="fill: var(--color2, #fff)" d="M22.167 11.301h-1.42c-0.087-0.275-0.197-0.542-0.33-0.797l1.004-1.004c0.125-0.125 0.194-0.292 0.194-0.47s-0.069-0.344-0.194-0.47l-1.181-1.181c-0.259-0.259-0.68-0.259-0.939 0l-1.004 1.004c-0.256-0.133-0.522-0.243-0.797-0.33v-1.42c-0-0.366-0.298-0.664-0.664-0.664h-1.671c-0.366 0-0.664 0.298-0.664 0.664v1.42c-0.275 0.087-0.542 0.197-0.797 0.33l-1.004-1.004c-0.259-0.259-0.68-0.259-0.939 0l-1.181 1.181c-0.126 0.125-0.195 0.292-0.195 0.47s0.069 0.344 0.195 0.47l1.004 1.004c-0.133 0.256-0.243 0.522-0.33 0.797h-1.42c-0.366 0-0.664 0.298-0.664 0.664v1.671c0 0.366 0.298 0.664 0.664 0.664h1.42c0.087 0.275 0.197 0.542 0.33 0.797l-1.004 1.004c-0.259 0.259-0.259 0.68 0 0.939l1.181 1.181c0.259 0.259 0.681 0.259 0.939 0l1.004-1.004c0.256 0.133 0.522 0.243 0.797 0.33v1.42c0 0.366 0.298 0.664 0.664 0.664h1.671c0.366 0 0.664-0.298 0.664-0.664v-1.42c0.275-0.087 0.541-0.197 0.797-0.33l1.004 1.004c0.259 0.259 0.68 0.259 0.939 0l1.181-1.181c0.125-0.125 0.195-0.292 0.195-0.47s-0.069-0.344-0.195-0.47l-1.004-1.004c0.133-0.256 0.243-0.522 0.33-0.797h1.42c0.366 0 0.664-0.298 0.664-0.664v-1.671c0-0.366-0.298-0.664-0.664-0.664zM21.894 13.363h-1.504c-0.218 0-0.407 0.15-0.456 0.362-0.1 0.427-0.268 0.832-0.499 1.204-0.115 0.185-0.087 0.425 0.067 0.579l1.063 1.063-0.795 0.795-1.063-1.063c-0.154-0.154-0.394-0.182-0.579-0.067-0.372 0.231-0.777 0.399-1.204 0.499-0.212 0.050-0.362 0.239-0.362 0.456v1.504h-1.124v-1.504c0-0.218-0.15-0.407-0.362-0.456-0.427-0.1-0.832-0.268-1.204-0.499-0.185-0.115-0.425-0.087-0.579 0.067l-1.063 1.063-0.795-0.795 1.063-1.063c0.154-0.154 0.182-0.394 0.067-0.579-0.231-0.372-0.399-0.777-0.499-1.204-0.050-0.212-0.239-0.362-0.456-0.362h-1.504v-1.124h1.504c0.218 0 0.407-0.15 0.456-0.362 0.1-0.427 0.268-0.832 0.499-1.204 0.115-0.185 0.087-0.425-0.067-0.579l-1.063-1.063 0.795-0.795 1.063 1.063c0.154 0.154 0.394 0.182 0.579 0.067 0.372-0.231 0.777-0.399 1.204-0.499 0.212-0.050 0.362-0.239 0.362-0.456v-1.504h1.124v1.504c0 0.218 0.15 0.407 0.362 0.456 0.427 0.1 0.832 0.268 1.204 0.499 0.185 0.115 0.425 0.087 0.579-0.067l1.063-1.063 0.795 0.795-1.063 1.063c-0.154 0.154-0.182 0.394-0.067 0.579 0.231 0.372 0.399 0.777 0.499 1.204 0.050 0.212 0.239 0.362 0.456 0.362h1.504v1.124z"></path>
<path fill="#fff" style="fill: var(--color2, #fff)" d="M16 10.289c-1.385 0-2.511 1.127-2.511 2.511s1.127 2.511 2.511 2.511 2.511-1.127 2.511-2.511-1.127-2.511-2.511-2.511zM16 14.374c-0.868 0-1.574-0.706-1.574-1.574s0.706-1.574 1.574-1.574c0.868 0 1.574 0.706 1.574 1.574s-0.706 1.574-1.574 1.574zM5.223 12.332h-1.555c-0.259 0-0.469 0.21-0.469 0.469s0.21 0.469 0.469 0.469h1.555c0.259 0 0.469-0.21 0.469-0.469s-0.21-0.469-0.469-0.469zM28.332 12.332h-1.555c-0.259 0-0.469 0.21-0.469 0.469s0.21 0.469 0.469 0.469h1.555c0.259 0 0.469-0.21 0.469-0.469s-0.21-0.469-0.469-0.469zM8.711 20.089c-0.183-0.183-0.48-0.183-0.663 0l-1.1 1.1c-0.183 0.183-0.183 0.48 0 0.663s0.48 0.183 0.663 0l1.1-1.1c0.183-0.183 0.183-0.48 0-0.663zM25.051 3.749c-0.183-0.183-0.48-0.183-0.663 0l-1.1 1.1c-0.183 0.183-0.183 0.48 0 0.663s0.48 0.183 0.663 0l1.1-1.1c0.183-0.183 0.183-0.48 0-0.663z"></path>
<path fill="#1d80eb" style="fill: var(--color4, #1d80eb)" d="M16 0c-0.259 0-0.469 0.21-0.469 0.469v1.555c0 0.259 0.21 0.469 0.469 0.469s0.469-0.21 0.469-0.469v-1.555c0-0.259-0.21-0.469-0.469-0.469z"></path>
<path fill="#fff" style="fill: var(--color2, #fff)" d="M25.051 21.189l-1.1-1.1c-0.183-0.183-0.48-0.183-0.663 0s-0.183 0.48 0 0.663l1.1 1.1c0.183 0.183 0.48 0.183 0.663 0s0.183-0.48 0-0.663zM8.711 4.849l-1.1-1.1c-0.183-0.183-0.48-0.183-0.663 0s-0.183 0.48 0 0.663l1.1 1.1c0.183 0.183 0.48 0.183 0.663 0s0.183-0.48 0-0.663zM25.352 11.652c-0.504-4.305-3.917-7.717-8.201-8.24-0.257-0.032-0.491 0.152-0.522 0.409s0.152 0.491 0.409 0.522c3.891 0.474 6.927 3.525 7.383 7.418 0.028 0.239 0.23 0.414 0.465 0.414 0.018 0 0.037-0.001 0.055-0.003 0.257-0.030 0.441-0.263 0.411-0.52z"></path>
<path fill="#fff" style="fill: var(--color2, #fff)" d="M24.935 13.429c-0.257-0.033-0.491 0.149-0.524 0.406-0.32 2.524-1.744 4.752-3.909 6.111-0.933 0.586-1.49 1.589-1.49 2.682v1.929h-6.024v-1.972c0-1.059-0.553-2.059-1.444-2.611-2.519-1.559-4.023-4.257-4.023-7.215 0-4.272 3.2-7.89 7.443-8.415 0.257-0.032 0.439-0.266 0.408-0.523s-0.266-0.44-0.523-0.408c-4.688 0.581-8.266 4.613-8.266 9.346 0 1.633 0.425 3.243 1.229 4.654 0.779 1.368 1.899 2.53 3.239 3.359 0.617 0.382 1 1.077 1 1.814v2.040c-0.477 0.166-0.82 0.618-0.82 1.151v0.668c0 0.283 0.098 0.543 0.26 0.75-0.162 0.207-0.26 0.467-0.26 0.75v0.668c0 0.672 0.547 1.219 1.219 1.219h1.474v1.060c0 0.611 0.497 1.109 1.109 1.109h1.937c0.611 0 1.109-0.497 1.109-1.109v-1.060h1.474c0.672 0 1.219-0.547 1.219-1.219v-0.668c0-0.283-0.098-0.543-0.26-0.75 0.162-0.207 0.26-0.467 0.26-0.75v-0.668c0-0.532-0.344-0.985-0.82-1.151v-1.998c0-0.769 0.393-1.475 1.051-1.888 2.403-1.509 3.985-3.983 4.34-6.787 0.033-0.257-0.149-0.491-0.406-0.524zM17.14 30.891c0 0.093-0.078 0.171-0.171 0.171h-1.937c-0.093 0-0.171-0.078-0.171-0.171v-1.060h2.279v1.060zM19.832 28.613c0 0.152-0.129 0.281-0.281 0.281h-7.102c-0.152 0-0.281-0.129-0.281-0.281v-0.668c0-0.152 0.129-0.281 0.281-0.281h7.102c0.152 0 0.281 0.129 0.281 0.281v0.668zM19.832 26.445c0 0.152-0.129 0.281-0.281 0.281h-7.102c-0.152 0-0.281-0.129-0.281-0.281v-0.668c0-0.152 0.129-0.281 0.281-0.281h7.102c0.152 0 0.281 0.129 0.281 0.281v0.668z"></path>
</symbol>
<symbol id="icon-vk" viewBox="0 0 32 32">
<path fill="#5376af" style="fill: var(--color3, #5376af)" d="M16 32c8.837 0 16-7.163 16-16s-7.163-16-16-16c-8.837 0-16 7.163-16 16s7.163 16 16 16z"></path>
<path fill="#fff" style="fill: var(--color2, #fff)" d="M15.395 23.018h1.256c0 0 0.379-0.042 0.573-0.25 0.178-0.192 0.173-0.552 0.173-0.552s-0.024-1.685 0.758-1.933c0.771-0.244 1.761 1.629 2.81 2.349 0.794 0.545 1.396 0.425 1.396 0.425l2.806-0.039c0 0 1.468-0.090 0.772-1.244-0.057-0.094-0.405-0.854-2.086-2.414-1.759-1.633-1.524-1.369 0.596-4.193 1.291-1.72 1.807-2.77 1.645-3.22-0.154-0.428-1.103-0.315-1.103-0.315l-3.159 0.020c0 0-0.234-0.032-0.408 0.072-0.17 0.102-0.279 0.339-0.279 0.339s-0.5 1.331-1.167 2.463c-1.407 2.389-1.969 2.515-2.199 2.366-0.535-0.346-0.401-1.389-0.401-2.13 0-2.315 0.351-3.28-0.684-3.53-0.343-0.083-0.596-0.138-1.474-0.147-1.127-0.012-2.081 0.003-2.621 0.268-0.359 0.176-0.637 0.568-0.468 0.591 0.209 0.028 0.682 0.127 0.932 0.469 0.324 0.44 0.312 1.43 0.312 1.43s0.186 2.725-0.434 3.064c-0.426 0.232-1.010-0.242-2.264-2.409-0.643-1.11-1.128-2.337-1.128-2.337s-0.094-0.229-0.26-0.352c-0.203-0.149-0.485-0.196-0.485-0.196l-3.002 0.020c0 0-0.451 0.012-0.616 0.208-0.147 0.174-0.012 0.535-0.012 0.535s2.35 5.498 5.011 8.269c2.44 2.54 5.211 2.374 5.211 2.374z"></path>
</symbol>
<symbol id="icon-num-pan" viewBox="0 0 32 32">
<path fill="#2797ff" style="fill: var(--color1, #2797ff)" d="M27.194 3.077c0 1.699-1.378 3.077-3.077 3.077s-3.077-1.378-3.077-3.077c0-1.699 1.378-3.077 3.077-3.077s3.077 1.378 3.077 3.077z"></path>
<path fill="#2797ff" style="fill: var(--color1, #2797ff)" d="M18.579 3.077c0 1.699-1.378 3.077-3.077 3.077s-3.077-1.378-3.077-3.077c0-1.699 1.378-3.077 3.077-3.077s3.077 1.378 3.077 3.077z"></path>
<path fill="#2797ff" style="fill: var(--color1, #2797ff)" d="M9.963 3.077c0 1.699-1.378 3.077-3.077 3.077s-3.077-1.378-3.077-3.077c0-1.699 1.378-3.077 3.077-3.077s3.077 1.378 3.077 3.077z"></path>
<path fill="#2797ff" style="fill: var(--color1, #2797ff)" d="M27.194 11.692c0 1.699-1.378 3.077-3.077 3.077s-3.077-1.378-3.077-3.077c0-1.699 1.378-3.077 3.077-3.077s3.077 1.378 3.077 3.077z"></path>
<path fill="#2797ff" style="fill: var(--color1, #2797ff)" d="M18.579 11.692c0 1.699-1.378 3.077-3.077 3.077s-3.077-1.378-3.077-3.077c0-1.699 1.378-3.077 3.077-3.077s3.077 1.378 3.077 3.077z"></path>
<path fill="#2797ff" style="fill: var(--color1, #2797ff)" d="M9.963 11.693c0 1.699-1.378 3.077-3.077 3.077s-3.077-1.378-3.077-3.077c0-1.699 1.378-3.077 3.077-3.077s3.077 1.378 3.077 3.077z"></path>
<path fill="#2797ff" style="fill: var(--color1, #2797ff)" d="M27.194 20.308c0 1.699-1.378 3.077-3.077 3.077s-3.077-1.378-3.077-3.077c0-1.699 1.378-3.077 3.077-3.077s3.077 1.378 3.077 3.077z"></path>
<path fill="#2797ff" style="fill: var(--color1, #2797ff)" d="M18.579 20.308c0 1.699-1.378 3.077-3.077 3.077s-3.077-1.378-3.077-3.077c0-1.699 1.378-3.077 3.077-3.077s3.077 1.378 3.077 3.077z"></path>
<path fill="#2797ff" style="fill: var(--color1, #2797ff)" d="M18.579 28.924c0 1.699-1.378 3.077-3.077 3.077s-3.077-1.378-3.077-3.077c0-1.699 1.378-3.077 3.077-3.077s3.077 1.378 3.077 3.077z"></path>
<path fill="#2797ff" style="fill: var(--color1, #2797ff)" d="M9.963 20.309c0 1.699-1.378 3.077-3.077 3.077s-3.077-1.378-3.077-3.077c0-1.699 1.378-3.077 3.077-3.077s3.077 1.378 3.077 3.077z"></path>
</symbol>
<symbol id="icon-phone" viewBox="0 0 32 32">
<path d="M27.586 3.049c0 1.684-1.365 3.049-3.049 3.049s-3.049-1.365-3.049-3.049c0-1.684 1.365-3.049 3.049-3.049s3.049 1.365 3.049 3.049z"></path>
<path d="M19.049 3.049c0 1.684-1.365 3.049-3.049 3.049s-3.049-1.365-3.049-3.049c0-1.684 1.365-3.049 3.049-3.049s3.049 1.365 3.049 3.049z"></path>
<path d="M10.511 3.049c0 1.684-1.365 3.049-3.049 3.049s-3.049-1.365-3.049-3.049c0-1.684 1.365-3.049 3.049-3.049s3.049 1.365 3.049 3.049z"></path>
<path d="M27.587 11.585c0 1.684-1.365 3.049-3.049 3.049s-3.049-1.365-3.049-3.049c0-1.684 1.365-3.049 3.049-3.049s3.049 1.365 3.049 3.049z"></path>
<path d="M19.050 11.585c0 1.684-1.365 3.049-3.049 3.049s-3.049-1.365-3.049-3.049c0-1.684 1.365-3.049 3.049-3.049s3.049 1.365 3.049 3.049z"></path>
<path d="M10.512 11.585c0 1.684-1.365 3.049-3.049 3.049s-3.049-1.365-3.049-3.049c0-1.684 1.365-3.049 3.049-3.049s3.049 1.365 3.049 3.049z"></path>
<path d="M27.587 20.123c0 1.684-1.365 3.049-3.049 3.049s-3.049-1.365-3.049-3.049c0-1.684 1.365-3.049 3.049-3.049s3.049 1.365 3.049 3.049z"></path>
<path d="M19.050 20.123c0 1.684-1.365 3.049-3.049 3.049s-3.049-1.365-3.049-3.049c0-1.684 1.365-3.049 3.049-3.049s3.049 1.365 3.049 3.049z"></path>
<path d="M19.050 28.66c0 1.684-1.365 3.049-3.049 3.049s-3.049-1.365-3.049-3.049c0-1.684 1.365-3.049 3.049-3.049s3.049 1.365 3.049 3.049z"></path>
<path d="M10.512 20.123c0 1.684-1.365 3.049-3.049 3.049s-3.049-1.365-3.049-3.049c0-1.684 1.365-3.049 3.049-3.049s3.049 1.365 3.049 3.049z"></path>
</symbol>
<symbol id="icon-play-button" viewBox="0 0 32 32">
<path d="M16 0c-8.823 0-16 7.178-16 16s7.177 16 16 16 16-7.178 16-16-7.177-16-16-16zM16 30.667c-8.087 0-14.667-6.579-14.667-14.667s6.579-14.667 14.667-14.667c8.087 0 14.667 6.579 14.667 14.667s-6.579 14.667-14.667 14.667z"></path>
<path d="M22.361 15.439l-9.333-6c-0.204-0.133-0.469-0.141-0.68-0.025-0.215 0.117-0.348 0.341-0.348 0.585v12c0 0.244 0.133 0.468 0.348 0.585 0.099 0.054 0.21 0.081 0.319 0.081 0.125 0 0.251-0.035 0.361-0.106l9.333-6c0.19-0.122 0.306-0.334 0.306-0.561s-0.116-0.438-0.306-0.561zM13.333 20.779v-9.557l7.434 4.779-7.434 4.779z"></path>
</symbol>
<symbol id="icon-vision" viewBox="0 0 32 32">
<path fill="#fff" style="fill: var(--color2, #fff)" d="M31.854 15.455c-0.221-0.403-0.458-0.795-0.708-1.177-3.024-5.912-8.56-10.171-15.146-10.171-6.604 0-12.131 4.275-15.147 10.172-0.25 0.381-0.486 0.773-0.708 1.176-0.194 0.354-0.194 0.777 0 1.131 0.221 0.403 0.458 0.795 0.708 1.176 3.022 5.91 8.26 9.696 14.018 10.129 0.259 0.019 0.483-0.174 0.503-0.432s-0.174-0.483-0.432-0.503c-3.468-0.261-6.741-1.822-9.402-4.38 3.051 2.126 6.705 3.263 10.46 3.263 3.75 0 7.404-1.134 10.46-3.263-2.661 2.558-5.934 4.119-9.401 4.38-0.258 0.019-0.452 0.244-0.432 0.503 0.019 0.257 0.243 0.451 0.503 0.432 5.757-0.433 10.995-4.219 14.017-10.129 0.25-0.381 0.487-0.773 0.708-1.177 0.194-0.354 0.194-0.777 0-1.131zM16 5.045c3.917 0 7.602 1.608 10.539 4.475-3.088-2.176-6.777-3.319-10.539-3.319-3.754 0-7.445 1.138-10.539 3.319 2.937-2.867 6.622-4.475 10.539-4.475zM31.032 16.135c-2.961 5.395-8.71 8.767-15.032 8.767-6.405 0-12.111-3.445-15.032-8.767-0.039-0.072-0.039-0.157 0-0.229 2.961-5.393 8.711-8.767 15.032-8.767 6.633 0 12.232 3.667 15.032 8.767 0.039 0.072 0.039 0.157 0 0.229z"></path>
<path fill="#fff" style="fill: var(--color2, #fff)" d="M16 10.511c-3.059 0-5.531 2.49-5.531 5.531 0 3.071 2.498 5.531 5.531 5.531 3.063 0 5.531-2.493 5.531-5.531 0-3.076-2.504-5.531-5.531-5.531zM15.531 11.584v2.313c-0.443-0.029-0.88-0.1-1.306-0.21 0.21-0.732 0.646-1.726 1.306-2.103zM13.949 11.934c-0.27 0.452-0.468 0.953-0.615 1.457-0.268-0.109-0.53-0.235-0.783-0.377 0.401-0.457 0.876-0.819 1.398-1.079zM13.122 14.315c-0.070 0.404-0.116 0.826-0.135 1.258h-1.557c0.064-0.628 0.258-1.236 0.574-1.793 0.36 0.208 0.733 0.387 1.117 0.535zM12.025 18.338c-0.318-0.548-0.527-1.167-0.594-1.828h1.557c0.020 0.447 0.068 0.884 0.142 1.301-0.38 0.146-0.749 0.322-1.105 0.526zM12.578 19.101c0.249-0.138 0.506-0.26 0.768-0.367 0.145 0.489 0.34 0.975 0.603 1.415-0.524-0.262-0.988-0.62-1.371-1.048zM15.531 20.499c-0.656-0.374-1.081-1.334-1.294-2.059 0.422-0.108 0.855-0.178 1.294-0.207v2.266zM15.531 17.295c-0.509 0.030-1.011 0.106-1.5 0.23-0.052-0.315-0.089-0.66-0.106-1.015h1.606v0.785zM15.531 15.573h-1.606c0.017-0.352 0.051-0.672 0.098-0.97 0.492 0.125 0.996 0.203 1.508 0.232v0.738zM19.996 13.78c0.32 0.563 0.511 1.173 0.574 1.793h-1.557c-0.019-0.432-0.064-0.853-0.135-1.258 0.385-0.148 0.758-0.328 1.117-0.535zM19.45 13.013c-0.254 0.142-0.516 0.268-0.783 0.377-0.146-0.503-0.345-1.003-0.615-1.457 0.532 0.266 1 0.626 1.398 1.079zM16.469 11.584c0.512 0.292 1.002 1.042 1.306 2.103-0.426 0.11-0.863 0.181-1.306 0.21v-2.312zM16.469 14.835c0.512-0.030 1.016-0.107 1.508-0.232 0.048 0.307 0.082 0.631 0.098 0.97h-1.606v-0.738zM16.469 20.499v-2.266c0.439 0.029 0.872 0.098 1.294 0.207-0.305 1.038-0.789 1.771-1.294 2.059zM16.469 17.295v-0.785h1.606c-0.017 0.356-0.053 0.695-0.106 1.015-0.489-0.124-0.991-0.201-1.5-0.23zM18.052 20.149c0.262-0.44 0.458-0.926 0.603-1.415 0.263 0.107 0.519 0.229 0.768 0.367-0.377 0.421-0.84 0.783-1.371 1.048zM19.976 18.338c-0.356-0.204-0.725-0.38-1.105-0.526 0.074-0.418 0.122-0.854 0.142-1.302h1.557c-0.067 0.661-0.276 1.28-0.594 1.828z"></path>
<path fill="#fff" style="fill: var(--color2, #fff)" d="M22.923 16.672c-0.256-0.040-0.496 0.134-0.536 0.39-0.5 3.156-3.186 5.447-6.387 5.447-3.566 0-6.467-2.901-6.467-6.467s2.901-6.467 6.467-6.467c3.201 0 5.887 2.291 6.387 5.447 0.040 0.256 0.28 0.43 0.536 0.39s0.43-0.281 0.39-0.536c-0.273-1.722-1.154-3.3-2.482-4.444-1.342-1.156-3.058-1.793-4.831-1.793-4.083 0-7.405 3.322-7.405 7.405s3.322 7.404 7.405 7.404c1.773 0 3.489-0.637 4.831-1.793 1.328-1.144 2.209-2.722 2.482-4.444 0.041-0.256-0.134-0.496-0.39-0.536z"></path>
</symbol>
<symbol id="icon-vk" viewBox="0 0 32 32">
<path fill="#b1b1b1" style="fill: var(--color3, #b1b1b1)" d="M16 32c8.837 0 16-7.163 16-16s-7.163-16-16-16c-8.837 0-16 7.163-16 16s7.163 16 16 16z"></path>
<path fill="#fff" style="fill: var(--color2, #fff)" d="M15.396 23.018h1.256s0.379-0.042 0.573-0.25c0.178-0.192 0.172-0.552 0.172-0.552s-0.024-1.685 0.758-1.933c0.771-0.244 1.761 1.629 2.81 2.349 0.794 0.545 1.396 0.425 1.396 0.425l2.806-0.039s1.468-0.090 0.772-1.244c-0.057-0.094-0.405-0.854-2.086-2.414-1.759-1.633-1.524-1.369 0.596-4.193 1.291-1.72 1.807-2.77 1.645-3.22-0.154-0.428-1.103-0.315-1.103-0.315l-3.159 0.020s-0.234-0.032-0.408 0.072c-0.17 0.102-0.279 0.339-0.279 0.339s-0.5 1.331-1.167 2.463c-1.407 2.389-1.969 2.515-2.199 2.366-0.535-0.346-0.401-1.389-0.401-2.13 0-2.315 0.351-3.28-0.684-3.53-0.343-0.083-0.596-0.138-1.474-0.147-1.127-0.012-2.081 0.003-2.621 0.268-0.359 0.176-0.637 0.568-0.468 0.591 0.209 0.028 0.682 0.127 0.932 0.469 0.324 0.44 0.312 1.43 0.312 1.43s0.186 2.725-0.434 3.064c-0.426 0.232-1.010-0.242-2.264-2.409-0.643-1.11-1.128-2.337-1.128-2.337s-0.094-0.229-0.26-0.352c-0.203-0.149-0.485-0.196-0.485-0.196l-3.002 0.020s-0.451 0.012-0.616 0.208c-0.147 0.174-0.012 0.535-0.012 0.535s2.35 5.498 5.011 8.269c2.44 2.54 5.211 2.374 5.211 2.374z"></path>
</symbol>
<symbol id="icon-whatsapp" viewBox="0 0 32 32">
<path fill="#5ad074" style="fill: var(--color6, #5ad074)" d="M16.004 0h-0.008c-8.822 0-15.996 7.176-15.996 16 0 3.5 1.128 6.744 3.046 9.378l-1.994 5.944 6.15-1.966c2.53 1.676 5.548 2.644 8.802 2.644 8.822 0 15.996-7.178 15.996-16s-7.174-16-15.996-16z"></path>
<path fill="#fafafa" style="fill: var(--color7, #fafafa)" d="M25.314 22.594c-0.386 1.090-1.918 1.994-3.14 2.258-0.836 0.178-1.928 0.32-5.604-1.204-4.702-1.948-7.73-6.726-7.966-7.036-0.226-0.31-1.9-2.53-1.9-4.826s1.166-3.414 1.636-3.894c0.386-0.394 1.024-0.574 1.636-0.574 0.198 0 0.376 0.010 0.536 0.018 0.47 0.020 0.706 0.048 1.016 0.79 0.386 0.93 1.326 3.226 1.438 3.462 0.114 0.236 0.228 0.556 0.068 0.866-0.15 0.32-0.282 0.462-0.518 0.734s-0.46 0.48-0.696 0.772c-0.216 0.254-0.46 0.526-0.188 0.996 0.272 0.46 1.212 1.994 2.596 3.226 1.786 1.59 3.234 2.098 3.752 2.314 0.386 0.16 0.846 0.122 1.128-0.178 0.358-0.386 0.8-1.026 1.25-1.656 0.32-0.452 0.724-0.508 1.148-0.348 0.432 0.15 2.718 1.28 3.188 1.514 0.47 0.236 0.78 0.348 0.894 0.546 0.112 0.198 0.112 1.128-0.274 2.22z"></path>
</symbol>
<symbol id="icon-worker" viewBox="0 0 32 32">
<path fill="#fff" style="fill: var(--color2, #fff)" d="M27.621 27.284c-0.017-0.339-0.178-0.657-0.441-0.872l-4.987-4.072c-0.481-0.393-1.174-0.358-1.613 0.081l-0.11 0.11-1.214-1.214c1.448-1.579 2.36-3.601 2.584-5.739 0.025-0.237-0.147-0.449-0.384-0.474s-0.449 0.147-0.474 0.384c-0.448 4.294-3.835 7.696-8.129 8.16-0.237 0.026-0.408 0.238-0.382 0.475 0.026 0.238 0.24 0.408 0.475 0.382 2.123-0.23 4.131-1.141 5.701-2.579l1.214 1.214-0.11 0.11c-0.439 0.439-0.474 1.133-0.081 1.613l4.072 4.987c0.215 0.263 0.533 0.424 0.872 0.441 0.020 0.001 0.040 0.002 0.060 0.002 0.318 0 0.626-0.127 0.852-0.353l1.744-1.744c0.24-0.24 0.368-0.573 0.351-0.912zM26.66 27.586l-1.744 1.744c-0.069 0.069-0.161 0.105-0.259 0.1s-0.186-0.049-0.248-0.125l-4.072-4.987c-0.111-0.136-0.101-0.333 0.023-0.458l0.829-0.829c0.125-0.125 0.321-0.134 0.458-0.023l4.987 4.072c0.076 0.062 0.12 0.15 0.125 0.248s-0.031 0.19-0.1 0.259z"></path>
<path fill="#fff" style="fill: var(--color2, #fff)" d="M21.839 13.475c-0.28-2.684-1.652-5.24-3.93-6.963v-5.015c0-0.355-0.289-0.644-0.644-0.644h-2.386c-0.355 0-0.644 0.289-0.644 0.644v2.569h-2.167c-0.28 0-0.518 0.18-0.606 0.429-2.538 0.097-4.907 1.128-6.708 2.929-3.916 3.916-3.916 10.288 0 14.203 1.63 1.63 3.793 2.655 6.089 2.886 0.236 0.024 0.448-0.148 0.472-0.386s-0.149-0.448-0.386-0.472c-2.099-0.211-4.075-1.148-5.565-2.638-3.58-3.58-3.58-9.404 0-12.984 1.629-1.629 3.768-2.57 6.061-2.675v1.536h-2.167c-0.355 0-0.644 0.289-0.644 0.644v0.077c-0.802 0.375-1.526 0.883-2.155 1.511-2.976 2.976-2.976 7.819 0 10.796 1.488 1.488 3.443 2.232 5.398 2.232 4.11-0 7.413-3.219 7.62-7.234 0.094-1.824-0.462-3.609-1.566-5.045v-2.253c1.741 1.527 2.834 3.662 3.072 5.94 0.025 0.237 0.237 0.409 0.474 0.384s0.409-0.237 0.384-0.474zM15.098 1.716h1.949v14.238h-1.949v-14.238zM12.287 4.929h1.949v11.025h-1.949v-11.025zM9.476 7.758h1.949v8.196h-1.949v-8.196zM8.613 8.583v0.999h-1.383c0.419-0.392 0.882-0.727 1.383-0.999zM6.664 10.444h1.949v5.51h-1.949v-5.51zM5.802 11.493v4.461h-0.563c-0.32-1.492-0.132-3.072 0.563-4.461zM17.91 11.49c0.705 1.398 0.889 2.977 0.568 4.464h-0.568v-4.464zM18.231 16.817c-0.329 0.913-0.859 1.769-1.587 2.497-3.495 3.495-9.487 2.176-11.159-2.497h12.746z"></path>
</symbol>
<symbol id="icon-pin-map" viewBox="0 0 21 32">
<path fill="#2797ff" style="fill: var(--color1, #2797ff)" d="M10.667 0c-5.881 0-10.667 4.785-10.667 10.667 0 1.766 0.441 3.516 1.281 5.069l8.803 15.921c0.117 0.212 0.341 0.344 0.583 0.344s0.466-0.131 0.583-0.344l8.806-15.926c0.836-1.547 1.277-3.298 1.277-5.064 0-5.881-4.785-10.667-10.667-10.667zM10.667 16c-2.941 0-5.333-2.393-5.333-5.333s2.393-5.333 5.333-5.333c2.941 0 5.333 2.393 5.333 5.333s-2.393 5.333-5.333 5.333z"></path>
</symbol>
</defs>
</svg>
