<svg aria-hidden="true" style="position:absolute;width:0;height:0;overflow:hidden" xmlns="http://www.w3.org/2000/svg"><defs><symbol id="icon-arrow-left" viewBox="0 0 32 32"><path fill="none" stroke="#72727e" style="stroke:var(--color1, #72727e)" stroke-linejoin="round" stroke-linecap="round" stroke-width="3.2" d="m20 8-8 8 8 8"/></symbol><symbol id="icon-arrow-right" viewBox="0 0 32 32"><path fill="none" stroke="#eee" style="stroke:var(--color2, #eee)" stroke-linejoin="round" stroke-linecap="round" stroke-width="3.2" d="m12 24 8-8-8-8"/></symbol><symbol id="icon-Calendar" viewBox="0 0 32 32"><path fill="#446df6" style="fill:var(--color3, #446df6)" d="M21.055 2.668c.505.032.895.464.881.979v1.38C25.948 5.416 28 7.633 28 11.62v11.027c0 4.434-2.528 6.687-7.501 6.687h-8.997c-4.974 0-7.501-2.253-7.501-6.687V11.62c0-2.654.904-4.552 2.759-5.661l.13-.074c.269-.125.584-.114.846.038.306.178.486.516.466.874s-.238.673-.562.813c-1.229.731-1.809 2.005-1.809 4.01v.354h16.916c.506 0 .916.417.916.932s-.41.932-.916.932H5.831v8.81c0 3.385 1.646 4.788 5.67 4.812h8.997c3.965 0 5.658-1.439 5.658-4.824V11.609c0-2.948-1.287-4.375-4.22-4.717v.896c-.068.478-.479.826-.953.808s-.858-.398-.89-.879V3.566l.017-.147c.038-.193.135-.371.28-.506.181-.168.421-.256.666-.243zm.528 18.928.148.009c.253.032.491.148.674.332.22.221.344.523.344.838 0 .651-.519 1.179-1.159 1.179s-1.159-.528-1.159-1.179.519-1.179 1.159-1.179l-.006-.001zm-5.56.001.145.009c.572.073 1.014.569 1.014 1.17 0 .651-.519 1.179-1.159 1.179s-1.159-.528-1.159-1.179.519-1.179 1.159-1.179zm-5.559-.001.147.009c.253.032.491.148.674.332.22.221.344.523.344.838 0 .651-.519 1.179-1.159 1.179s-1.159-.528-1.159-1.179.519-1.179 1.159-1.179l-.006-.001zm11.119-4.776.148.009c.253.032.491.148.674.332.22.221.344.523.344.838 0 .651-.519 1.179-1.159 1.179s-1.159-.528-1.159-1.179.519-1.179 1.159-1.179h-.006zm-5.56 0 .145.009c.572.073 1.014.569 1.014 1.17 0 .651-.519 1.179-1.159 1.179s-1.159-.528-1.159-1.179.519-1.179 1.159-1.179zm-5.559 0 .147.009c.253.032.491.148.674.332.22.221.344.523.344.838 0 .651-.519 1.179-1.159 1.179s-1.159-.528-1.159-1.179.519-1.179 1.159-1.179h-.006zm.522-14.011c.472 0 .869.361.922.838v1.285h5.241c.506 0 .916.417.916.932s-.41.932-.916.932h-5.264v.932c0 .249-.098.488-.272.663s-.41.272-.655.269l-.134-.013c-.436-.077-.765-.466-.759-.93V3.648l.026-.139c.107-.406.471-.699.896-.699z"/></symbol><symbol id="icon-Call" viewBox="0 0 32 32"><path fill="silver" style="fill:var(--color4, #c0c0c0)" d="M5.741 14.113c.456-.309 1.079-.197 1.391.257 3.46 5.023 9.78 10.677 13.802 12.348 1.627.756 2.837.802 3.739.156.703-.425 2.699-2.408 2.663-3.44-.012-.121-.151-.349-.387-.59-.768-.786-3.345-2.736-3.884-2.939-.425-.091-.868.168-1.543.593l-.341.212c-.473.284-1.088.133-1.373-.341-.284-.472-.132-1.086.341-1.371l.308-.191c.747-.47 1.777-1.113 3.073-.844 1.021.212 4.233 2.853 4.848 3.481.579.592.899 1.222.953 1.871.087 2.456-3.203 5.023-3.58 5.239-.717.517-1.559.778-2.505.778-.941 0-1.987-.259-3.119-.786-4.354-1.807-10.938-7.667-14.642-13.044-.313-.454-.199-1.077.256-1.39zM8.403 2.668l.236.004c.688.057 1.317.377 1.908.953.629.614 3.272 3.829 3.484 4.846.228 1.094-.264 1.948-.623 2.572-.353.614-.476.877-.355 1.209.892 2.182 2.271 3.965 4.085 5.26.449.323.552.946.231 1.395-.195.272-.501.419-.813.419-.203 0-.405-.061-.581-.187-2.125-1.521-3.736-3.596-4.788-6.169-.463-1.273.087-2.227.488-2.924.301-.522.468-.834.397-1.167-.187-.481-2.136-3.054-2.923-3.821-.243-.239-.471-.378-.64-.392-.955-.023-2.907 1.864-3.349 2.599-.687.944-.639 2.152.099 3.771.228.502.007 1.094-.496 1.323-.504.228-1.095.008-1.324-.496C2.39 9.562 2.41 7.64 3.498 6.157c.405-.678 2.953-3.627 5.141-3.485l-.236-.004z"/></symbol><symbol id="icon-Chat" viewBox="0 0 32 32"><path fill="#446df6" style="fill:var(--color3, #446df6)" d="M16.009 2.667c2.157 0 4.306.532 6.215 1.539 6.5 3.43 9 11.509 5.573 18.011-2.338 4.434-6.941 7.117-11.803 7.117-.95 0-1.909-.102-2.864-.314-.538-.12-.877-.653-.758-1.191s.65-.875 1.192-.759c4.966 1.104 10.092-1.279 12.467-5.785 2.914-5.528.789-12.398-4.738-15.313-1.623-.856-3.45-1.309-5.285-1.309-6.261 0-11.345 5.085-11.345 11.335-.002 1.821.441 3.633 1.283 5.243l.256.5c.314.587.383 1.317.18 1.977-.281.74-.514 1.46-.707 2.176.749-.226 1.664-.558 2.325-.799l.271-.098c.513-.191 1.09.08 1.278.599.188.518-.081 1.091-.599 1.278l-.268.098c-.989.358-2.341.85-3.255 1.055-.077.016-.161.027-.237.025-.613 0-.986-.248-1.192-.457-.316-.321-.466-.77-.449-1.337.002-.065.011-.132.026-.196.237-1.01.546-2.018.919-2.994.027-.095.011-.268-.066-.412l-.257-.499c-.985-1.886-1.508-4.021-1.505-6.161 0-7.351 5.979-13.33 13.327-13.33h.015zm-.015 11.746c.875 0 1.585.712 1.585 1.586s-.71 1.586-1.585 1.586-1.585-.712-1.585-1.586c0-.874.71-1.586 1.585-1.586zm5.871 0c.875 0 1.585.712 1.585 1.586s-.71 1.586-1.585 1.586-1.585-.712-1.585-1.586c0-.874.71-1.586 1.585-1.586zm-11.742 0c.875 0 1.585.711 1.585 1.586 0 .874-.71 1.585-1.585 1.585s-1.585-.711-1.585-1.585c0-.875.71-1.586 1.585-1.586z"/></symbol><symbol id="icon-checkbox-ico" viewBox="0 0 32 32"><path fill="none" stroke="#f7f8fd" style="stroke:var(--color5, #f7f8fd)" stroke-linejoin="round" stroke-linecap="round" stroke-width="4" d="M26.666 8 11.999 22.667 5.332 16"/></symbol><symbol id="icon-close-ico" viewBox="0 0 32 32"><path fill="none" stroke="#72727e" style="stroke:var(--color1, #72727e)" stroke-linejoin="round" stroke-linecap="round" stroke-width="2.6667" d="M24 8 8 24M8 8l16 16"/></symbol><symbol id="icon-Document" viewBox="0 0 32 32"><path fill="#446df6" style="fill:var(--color3, #446df6)" d="M21.138 2.667c4.284 0 6.851 2.602 6.862 6.946v12.774c0 4.344-2.554 6.946-6.851 6.946h-3.808c-.488-.055-.858-.473-.858-.971s.37-.917.858-.971h3.797c3.274 0 4.923-1.684 4.923-5.004V9.613c0-3.32-1.649-5.004-4.923-5.004H10.851c-3.274 0-4.935 1.684-4.935 5.004v12.774c0 3.32 1.66 5.004 4.935 5.004.488.055.858.473.858.971s-.37.917-.858.971C6.567 29.333 4 26.731 4 22.387V9.613c0-4.356 2.566-6.946 6.851-6.946h10.287zM20.79 20.68c.526 0 .952.432.952.965s-.426.965-.952.965h-9.614c-.526 0-.952-.432-.952-.965s.426-.965.952-.965h9.614zm0-5.651c.367-.041.726.135.922.452s.196.721 0 1.038c-.196.317-.555.493-.922.452h-9.614c-.488-.055-.858-.473-.858-.971s.37-.917.858-.971h9.614zm-5.945-5.64c.488.055.858.473.858.971s-.37.917-.858.971h-3.658c-.488-.055-.858-.473-.858-.971s.37-.917.858-.971h3.658z"/></symbol><symbol id="icon-Download" viewBox="0 0 32 32"><path fill="#446df6" style="fill:var(--color3, #446df6)" d="M23.404 9.597c3.269 0 5.929 2.765 5.929 6.164v6.756c0 3.39-2.653 6.15-5.916 6.15H13.265c-.567 0-1.025-.48-1.025-1.067 0-.59.459-1.069 1.025-1.069h10.152c2.129 0 3.863-1.801 3.863-4.014v-6.756c0-2.222-1.739-4.029-3.876-4.029h-1.241c-.567 0-1.025-.477-1.025-1.067 0-.589.459-1.067 1.025-1.067h1.241zm-13.567.001c.567 0 1.027.478 1.027 1.067s-.46 1.067-1.027 1.067H8.582c-2.129 0-3.863 1.802-3.863 4.014v6.756c0 2.222 1.739 4.029 3.876 4.029.567 0 1.027.478 1.027 1.067s-.46 1.067-1.027 1.067c-3.269 0-5.929-2.765-5.929-6.164v-6.756c0-3.39 2.653-6.149 5.916-6.149h1.255zM16 3.333c.567 0 1.028.458 1.028 1.022v15.94c0 .414-.251.787-.636.945-.384.158-.827.069-1.12-.223l-3.877-3.877c-.199-.199-.299-.46-.299-.722s.1-.524.301-.723c.403-.398 1.052-.397 1.452.003l2.124 2.123V4.355c0-.564.46-1.022 1.027-1.022zM19.148 15.7c.399-.401 1.048-.405 1.452-.008.404.395.407 1.041.008 1.445l-.971.978c-.397.401-1.048.405-1.451.007-.204-.199-.305-.462-.305-.726 0-.259.099-.519.297-.719l.969-.976z"/></symbol><symbol id="icon-Edit" viewBox="0 0 32 32"><path fill="silver" style="fill:var(--color4, #c0c0c0)" d="M26.961 25.9c.573 0 1.039.47 1.039 1.05S27.535 28 26.961 28h-8.833c-.575 0-1.039-.47-1.039-1.05s.464-1.05 1.039-1.05h8.833zM16.14 5.385c1.305-1.686 3.59-1.851 5.431-.393l1.925 1.526c.841.666 1.416 1.543 1.616 2.47.224 1.035-.024 2.085-.697 2.953L12.934 26.747c-.58.749-1.453 1.186-2.396 1.198l-4.43.056c-.496 0-.916-.336-1.025-.812l-1.003-4.36c-.213-.928-.003-1.89.579-2.639l1.507-1.945c.353-.456 1.007-.538 1.458-.178.452.357.531 1.018.176 1.474l-1.507 1.945c-.191.246-.26.561-.19.867l.813 3.536 3.594-.045c.309-.004.596-.147.787-.393l11.481-14.806c.294-.378.395-.784.303-1.21-.098-.449-.406-.899-.868-1.264l-1.925-1.527c-.745-.588-1.796-.89-2.514.038l-1.517 1.954 2.407 1.952c.447.361.519 1.023.161 1.474-.205.26-.507.395-.812.395-.227 0-.457-.076-.648-.231l-2.389-1.936-3.928 5.067c-.355.456-1.007.539-1.46.178-.45-.357-.529-1.018-.176-1.474l6.726-8.674z"/></symbol><symbol id="icon-Filter" viewBox="0 0 32 32"><path fill="#446df6" style="fill:var(--color3, #446df6)" d="M24.568 18.659c.358 0 .715.04 1.064.118.602.134.981.727.843 1.319-.139.593-.738.968-1.338.831-1.55-.35-3.1.869-3.1 2.436 0 1.377 1.134 2.498 2.53 2.498 1.395 0 2.53-1.121 2.53-2.498 0-.141-.012-.281-.034-.415-.103-.602.31-1.169.918-1.271.607-.1 1.185.306 1.286.908.043.253.066.513.066.778 0 2.593-2.138 4.704-4.766 4.704-2.629 0-4.765-2.111-4.765-4.704 0-2.595 2.137-4.704 4.765-4.704zm-10.286 3.6c.617 0 1.118.494 1.118 1.103s-.501 1.103-1.118 1.103H5.117c-.617 0-1.118-.494-1.118-1.103s.501-1.103 1.118-1.103h9.165zM8.766 4c2.629 0 4.766 2.109 4.766 4.704 0 2.593-2.137 4.704-4.766 4.704S4 11.297 4 8.704c0-.265.022-.525.066-.778.101-.602.671-1.003 1.286-.908.608.101 1.021.669.918 1.271-.022.134-.034.274-.034.415 0 1.377 1.134 2.498 2.53 2.498s2.53-1.121 2.53-2.498c0-1.378-1.134-2.498-2.53-2.498-.191 0-.382.021-.563.062-.604.143-1.203-.231-1.343-.824s.234-1.187.836-1.324c.349-.081.708-.121 1.07-.121zm19.449 3.6c.617 0 1.118.494 1.118 1.103s-.501 1.103-1.118 1.103h-9.163c-.617 0-1.118-.494-1.118-1.103S18.435 7.6 19.052 7.6h9.163z"/></symbol><symbol id="icon-Location" viewBox="0 0 32 32"><path fill="#446df6" style="fill:var(--color3, #446df6)" d="M16.044 2.667c6.248.025 11.313 5.123 11.289 11.363v.124c-.084 4.46-2.765 8.16-4.999 10.479-.636.663-1.312 1.299-2.01 1.893-.418.357-1.046.308-1.403-.11-.357-.419-.307-1.045.111-1.402.646-.551 1.275-1.142 1.866-1.759 1.988-2.063 4.372-5.324 4.444-9.138.02-5.24-4.154-9.443-9.307-9.464h-.036c-5.135 0-9.323 4.163-9.343 9.295.088 2.535.945 4.945 2.48 6.967 1.791 2.385 4.509 4.911 7.091 6.592.461.299.591.914.29 1.375-.19.292-.509.451-.835.451-.186 0-.373-.051-.542-.161-2.765-1.8-5.676-4.505-7.595-7.06-1.781-2.347-2.777-5.147-2.88-8.095.025-6.302 5.105-11.35 11.333-11.35h.045zm-.048 7.178c2.378 0 4.313 1.932 4.313 4.308 0 2.375-1.935 4.306-4.313 4.306s-4.313-1.932-4.313-4.306c0-.55.446-.994.995-.994s.995.444.995.994c0 1.278 1.042 2.32 2.323 2.32s2.323-1.042 2.323-2.32c0-1.279-1.042-2.321-2.323-2.321-.549 0-.995-.444-.995-.993 0-.55.446-.994.995-.994z"/></symbol><symbol id="icon-menu" viewBox="0 0 32 32"><path fill="none" stroke="#72727e" style="stroke:var(--color1, #72727e)" stroke-linejoin="round" stroke-linecap="round" stroke-width="2.6667" d="M4 16h24M4 8h24M4 24h24"/></symbol><symbol id="icon-Message" viewBox="0 0 32 32"><path fill="silver" style="fill:var(--color4, #c0c0c0)" d="M21.596 4c4.268.013 7.724 3.495 7.737 7.794v1.948l-.009.129c-.063.464-.457.822-.935.822l-.012-.024-.148-.012c-.195-.031-.377-.124-.519-.267-.177-.178-.276-.42-.276-.672v-1.925c-.032-3.235-2.627-5.849-5.838-5.881H10.403c-3.211.032-5.806 2.647-5.838 5.881v8.412c.032 3.235 2.627 5.849 5.838 5.881h11.193c3.211-.032 5.806-2.647 5.838-5.881.054-.487.463-.856.949-.856s.895.368.949.856c-.013 4.299-3.469 7.781-7.737 7.794H10.402c-4.27-.007-7.731-3.492-7.737-7.794v-8.412c0-4.305 3.464-7.794 7.737-7.794h11.193zM8.392 11.183c.248-.027.497.048.69.208l5.543 4.42c.692.547 1.666.547 2.359 0l5.484-4.42h.012l.116-.08c.398-.233.916-.147 1.217.222.158.198.23.451.201.704s-.157.482-.355.639l-5.484 4.432c-1.395 1.131-3.382 1.131-4.777 0l-5.496-4.432-.101-.097c-.31-.344-.335-.871-.04-1.245.155-.197.382-.323.631-.35z"/></symbol><symbol id="icon-Star" viewBox="0 0 32 32"><path fill="#446df6" style="fill:var(--color3, #446df6)" d="M23.33 29.226c-.164.004-.327-.037-.469-.12l-6.851-3.608-6.032 3.248c-.984.533-2.216.168-2.749-.817-.007-.012-.013-.024-.02-.037-.209-.412-.283-.877-.211-1.333l1.173-6.925-4.904-4.965c-.801-.827-.801-2.141 0-2.969.312-.328.725-.54 1.173-.601l6.724-1.021 2.991-6.231c.465-1.013 1.664-1.459 2.679-.993.44.201.792.555.993.993l3.004 6.252 6.747 1.033c.545.081 1.035.383 1.355.832.597.859.507 2.019-.216 2.775l-4.881 4.907.68 3.732c.095.56-.275 1.095-.833 1.2-.549.099-1.075-.267-1.173-.817l-.692-3.732c-.116-.684.101-1.383.587-1.877l4.893-4.941-6.747-1.047c-.684-.111-1.264-.564-1.537-1.2l-3.003-6.225-3.04 6.324c-.273.637-.853 1.089-1.537 1.2L4.71 13.284l4.857 4.933c.484.487.701 1.176.587 1.852l-1.173 6.925 6.031-3.235c.597-.336 1.327-.336 1.924 0l6.841 3.608c.417.228.629.709.516 1.172-.104.463-.512.792-.985.8l.024-.111z"/></symbol><symbol id="icon-Wallet" viewBox="0 0 32 32"><path fill="#446df6" style="fill:var(--color3, #446df6)" d="M21.619 3.333c4.254 0 7.714 3.54 7.714 7.892v9.549c0 4.352-3.461 7.892-7.714 7.892-.491 0-.889-.407-.889-.91s.398-.909.889-.909c3.273 0 5.937-2.724 5.937-6.073v-7.621h-4.378c-1.438.001-2.61 1.199-2.611 2.671.001 1.472 1.173 2.67 2.611 2.671h1.819c.491 0 .889.407.889.909s-.398.91-.889.91h-1.819c-2.419-.001-4.388-2.015-4.389-4.49.001-2.475 1.97-4.489 4.389-4.491h4.378v-.109c0-3.349-2.663-6.073-5.937-6.073H10.38c-2.638 0-4.852 1.78-5.624 4.219h11.717c.491 0 .889.407.889.909 0 .503-.398.909-.889.909H4.448l-.004.035v9.55c0 3.349 2.662 6.073 5.935 6.073h5.655c.491 0 .889.407.889.909s-.398.91-.889.91h-5.655c-4.254 0-7.713-3.54-7.713-7.892v-9.55c0-4.352 3.46-7.892 7.713-7.892h11.239zm2.155 11.5c.491 0 .889.407.889.909s-.398.909-.889.909h-.404c-.491 0-.889-.407-.889-.909s.398-.909.889-.909h.404z"/></symbol><symbol id="icon-Wallet2" viewBox="0 0 32 32"><path fill="#446df6" style="fill:var(--color3, #446df6)" d="M21.619 3.333c4.254 0 7.714 3.54 7.714 7.892v9.549c0 4.352-3.461 7.892-7.714 7.892-.491 0-.889-.407-.889-.91s.398-.909.889-.909c3.273 0 5.937-2.724 5.937-6.073v-7.621h-4.378c-1.438.001-2.61 1.199-2.611 2.671.001 1.472 1.173 2.67 2.611 2.671h1.819c.491 0 .889.407.889.909s-.398.91-.889.91h-1.819c-2.419-.001-4.388-2.015-4.389-4.49.001-2.475 1.97-4.489 4.389-4.491h4.378v-.109c0-3.349-2.663-6.073-5.937-6.073H10.38c-2.638 0-4.852 1.78-5.624 4.219h11.717c.491 0 .889.407.889.909 0 .503-.398.909-.889.909H4.448l-.004.035v9.55c0 3.349 2.662 6.073 5.935 6.073h5.655c.491 0 .889.407.889.909s-.398.91-.889.91h-5.655c-4.254 0-7.713-3.54-7.713-7.892v-9.55c0-4.352 3.46-7.892 7.713-7.892h11.239zm2.155 11.5c.491 0 .889.407.889.909s-.398.909-.889.909h-.404c-.491 0-.889-.407-.889-.909s.398-.909.889-.909h.404z"/></symbol></defs></svg>